# xmcd
#
# Track frame offsets:
#	180
#	11111
#	25544
#	44472
#	55306
#	68598
#	80164
#	91338
#	104196
#	116178
#	127853
#	136069
#	146894
#	158888
#	172426
#	183418
#	194829
#	206092
#	217276
#	230982
#	240161
#
# Disc length: 3343 seconds
#
# Revision: 0
# Processed by: cddbd v1.4PL0 Copyright (c) Steve Scherf et al.
# Submitted via: EasyCDDAExtractor 4.6.9.1
#
DISCID=490d0d15
DTITLE=TBK - Vyftien goue jare
DYEAR=1996
DGENRE=Country
TTITLE0=BOTHMA SE WALS
TTITLE1=RIETKOO SETTEES
TTITLE2=VAALRIVIER WALS
TTITLE3=VIR DIE MEISIE POLKA
TTITLE4=VER OOR DIE SEE WALS
TTITLE5=DORINGDRAAD POLKA
TTITLE6=HOE BLINK IS DIE MAAN WALS
TTITLE7=MARICO  SE BLOM VASTRAP
TTITLE8=SNEEU WALS
TTITLE9=VISSERMAN SETTES
TTITLE10=SKOMMEL DAARDIE DING WALS
TTITLE11=PEET SE DINGE POLKA
TTITLE12=SOENTJIE WALS
TTITLE13=DIE KOLPERD SETTEES
TTITLE14=RUSVERSTOTE WALS
TTITLE15=POPPIE SE VROLIKHEID VASTRAP
TTITLE16=HINTERBERG WALS
TTITLE17=BOOMSTRAAT POLKA
TTITLE18=OPPERMAN WALS
TTITLE19=VASTRAPPER POLKA
TTITLE20=BETS SE WALS
EXTD=
EXTT0=
EXTT1=
EXTT2=
EXTT3=
EXTT4=
EXTT5=
EXTT6=
EXTT7=
EXTT8=
EXTT9=
EXTT10=
EXTT11=
EXTT12=
EXTT13=
EXTT14=
EXTT15=
EXTT16=
EXTT17=
EXTT18=
EXTT19=
EXTT20=
PLAYORDER=
